<?xml version="1.0" encoding="UTF-8" standalone="no"?>
<!-- Created with Inkscape (http://www.inkscape.org/) -->

<svg
   version="1.1"
   id="svg2"
   width="250.20934"
   height="28.001333"
   viewBox="0 0 250.20934 28.001333"
   xmlns="http://www.w3.org/2000/svg"
   xmlns:svg="http://www.w3.org/2000/svg">
  <defs
     id="defs6" />
  <g
     id="g8"
     transform="matrix(1.3333333,0,0,-1.3333333,0,28.001333)">
    <g
       id="g10"
       transform="translate(93.829,10.501)">
      <g
         id="g12">
        <g
           id="g14">
          <g
             id="g16">
            <g
               id="g18"
               transform="translate(-91.836,-3.368)">
              <g
                 id="g20"
                 transform="translate(20.789)">
                <g
                   id="g22">
                  <g
                     id="g24">
                    <g
                       id="g26"
                       transform="translate(-16.5)">
                      <g
                         id="g28">
                        <g
                           id="g30"
                           transform="translate(-6.282,-7.133)">
                          <g
                             aria-label="Σ"
                             transform="matrix(1,0,0,-1,6.282,7.133)"
                             id="text34"
                             style="font-size:9.9626px;font-family:LMRoman10;-inkscape-font-specification:LMRoman10-Regular">
                            <path
                               d="M 6.6251288,-2.3511735 H 6.3760638 C 6.196737,-0.68741938 5.5192803,-0.41842919 3.9551521,-0.41842919 H 1.2054746 L 3.7060871,-3.2478075 c 0.089663,-0.099626 0.089663,-0.1594016 0.089663,-0.1594016 0,-0.049813 -0.03985,-0.099626 -0.069738,-0.1394764 L 1.6836794,-6.495615 h 2.3013605 c 1.6836794,0 2.1818093,0.3586536 2.3910239,1.9327443 h 0.249065 L 6.346176,-6.8044556 H 0.81693318 c -0.23910239,0 -0.25902759,0 -0.25902759,0.2291398 l 2.48068731,3.6064611 -2.37109872,2.69986451 c -0.099626,0.10958859 -0.099626,0.12951379 -0.099626,0.15940159 C 0.56786819,0 0.66749418,0 0.81693318,0 H 6.346176 Z"
                               id="path156" />
                          </g>
                          <g
                             aria-label="j"
                             transform="matrix(1,0,0,-1,13.477,10.748)"
                             id="text38"
                             style="font-size:6.9738px;font-family:LMMathItalic7;-inkscape-font-specification:LMMathItalic7-Regular">
                            <path
                               d="M 0.65719894,-3.813797 H 1.2837513 v 3.88190052 q 0,0.72870763 -0.2792244,1.05560448 Q 0.72870764,1.4506049 0.1123708,1.4506049 H -0.12599151 V 0.91939748 h 0.16685362 q 0.35754347,0 0.48694015,-0.16685361 0.12939668,-0.16344844 0.12939668,-0.68444035 z m 0,-1.4846567 H 1.2837513 v 0.793406 H 0.65719894 Z"
                               id="path159" />
                          </g>
                          <g
                             aria-label="b"
                             transform="matrix(1,0,0,-1,17.675,7.133)"
                             id="text42"
                             style="font-size:9.9626px;font-family:LMMathItalic10;-inkscape-font-specification:LMMathItalic10-Regular">
                            <path
                               d="m 4.849957,-2.7192838 q 0,-0.9875038 -0.4086222,-1.5469271 -0.4037578,-0.5642879 -1.1139821,-0.5642879 -0.7102244,0 -1.1188467,0.5642879 -0.4037577,0.5594233 -0.4037577,1.5469271 0,0.9875038 0.4037577,1.5517916 0.4086223,0.55942337 1.1188467,0.55942337 0.7102243,0 1.1139821,-0.55942337 Q 4.849957,-1.73178 4.849957,-2.7192838 Z M 1.8047483,-4.6213231 q 0.2821439,-0.4864551 0.7102244,-0.7199535 0.432945,-0.238363 1.0312847,-0.238363 0.9923684,0 1.6101663,0.7880572 0.6226625,0.7880572 0.6226625,2.0722986 0,1.2842414 -0.6226625,2.07229856 -0.6177979,0.78805721 -1.6101663,0.78805721 -0.5983397,0 -1.0312847,-0.23349843 Q 2.0868922,-0.33078944 1.8047483,-0.81724451 V 0 H 0.90480642 V -7.5692408 H 1.8047483 Z"
                               id="path162" />
                          </g>
                          <g
                             aria-label="mm"
                             transform="matrix(1,0,0,-1,21.95,5.639)"
                             id="text46"
                             style="font-size:6.9738px;font-family:LMMathItalic7;-inkscape-font-specification:LMMathItalic7-Regular">
                            <path
                               d="m 3.6265123,-3.0816842 q 0.2349571,-0.4222418 0.561854,-0.6231471 0.3268969,-0.2009054 0.7695698,-0.2009054 0.5959057,0 0.9193975,0.4188366 0.3234917,0.4154315 0.3234917,1.1850012 V 0 H 5.5708677 v -2.2814678 q 0,-0.5482333 -0.194095,-0.8138371 -0.194095,-0.2656037 -0.5925006,-0.2656037 -0.4869402,0 -0.7695697,0.3234917 -0.2826296,0.3234917 -0.2826296,0.8819406 V 0 H 3.1021152 v -2.2814678 q 0,-0.5516385 -0.194095,-0.8138371 -0.194095,-0.2656037 -0.599311,-0.2656037 -0.4801298,0 -0.7627594,0.3268969 Q 1.2633202,-2.71052 1.2633202,-2.1554763 V 0 H 0.63336271 V -3.813797 H 1.2633202 v 0.5925006 q 0.2145261,-0.3507331 0.5141816,-0.5175867 0.2996555,-0.1668536 0.7116818,-0.1668536 0.4154314,0 0.7048714,0.2111209 0.2928451,0.2111209 0.4324573,0.6129316 z"
                               id="path165" />
                            <path
                               d="m 10.695853,-3.0816842 q 0.234958,-0.4222418 0.561855,-0.6231471 0.326896,-0.2009054 0.769569,-0.2009054 0.595906,0 0.919398,0.4188366 0.323491,0.4154315 0.323491,1.1850012 V 0 h -0.629957 v -2.2814678 q 0,-0.5482333 -0.194095,-0.8138371 -0.194095,-0.2656037 -0.592501,-0.2656037 -0.48694,0 -0.769569,0.3234917 -0.28263,0.3234917 -0.28263,0.8819406 V 0 h -0.629958 v -2.2814678 q 0,-0.5516385 -0.1940946,-0.8138371 -0.194095,-0.2656037 -0.599311,-0.2656037 -0.4801298,0 -0.7627594,0.3268969 Q 8.3326614,-2.71052 8.3326614,-2.1554763 V 0 H 7.7027039 v -3.813797 h 0.6299575 v 0.5925006 q 0.2145261,-0.3507331 0.5141816,-0.5175867 0.2996555,-0.1668536 0.7116817,-0.1668536 0.4154315,0 0.7048713,0.2111209 0.292845,0.2111209 0.432457,0.6129316 z"
                               id="path167" />
                          </g>
                          <g
                             aria-label="′"
                             transform="matrix(1,0,0,-1,36.09,7.631)"
                             id="text50"
                             style="font-size:4.9813px;font-family:LMMathSymbols5;-inkscape-font-specification:LMMathSymbols5-Regular">
                            <path
                               d="M 0.09729101,-2.7241484 0.51807465,-3.6313871 H 1.0118265 l -0.70292753,0.9072387 z"
                               id="path170" />
                          </g>
                          <g
                             id="g52"
                             transform="translate(6.282,7.133)" />
                        </g>
                      </g>
                      <g
                         id="g54"
                         transform="translate(16.5)" />
                    </g>
                  </g>
                </g>
                <g
                   id="g56"
                   transform="translate(65.508)">
                  <g
                     id="g58">
                    <g
                       id="g60">
                      <g
                         id="g62"
                         transform="translate(-16.518)">
                        <g
                           id="g64">
                          <g
                             id="g66"
                             transform="translate(-71.772,-7.133)">
                            <g
                               aria-label="Σ"
                               transform="matrix(1,0,0,-1,71.772,7.133)"
                               id="text70"
                               style="font-size:9.9626px;font-family:LMRoman10;-inkscape-font-specification:LMRoman10-Regular">
                              <path
                                 d="M 6.6251288,-2.3511735 H 6.3760638 C 6.196737,-0.68741938 5.5192803,-0.41842919 3.9551521,-0.41842919 H 1.2054746 L 3.7060871,-3.2478075 c 0.089663,-0.099626 0.089663,-0.1594016 0.089663,-0.1594016 0,-0.049813 -0.03985,-0.099626 -0.069738,-0.1394764 L 1.6836794,-6.495615 h 2.3013605 c 1.6836794,0 2.1818093,0.3586536 2.3910239,1.9327443 h 0.249065 L 6.346176,-6.8044556 H 0.81693318 c -0.23910239,0 -0.25902759,0 -0.25902759,0.2291398 l 2.48068731,3.6064611 -2.37109872,2.69986451 c -0.099626,0.10958859 -0.099626,0.12951379 -0.099626,0.15940159 C 0.56786819,0 0.66749418,0 0.81693318,0 H 6.346176 Z"
                                 id="path173" />
                            </g>
                            <g
                               aria-label="j"
                               transform="matrix(1,0,0,-1,78.967,10.748)"
                               id="text74"
                               style="font-size:6.9738px;font-family:LMMathItalic7;-inkscape-font-specification:LMMathItalic7-Regular">
                              <path
                                 d="M 0.65719894,-3.813797 H 1.2837513 v 3.88190052 q 0,0.72870763 -0.2792244,1.05560448 Q 0.72870764,1.4506049 0.1123708,1.4506049 H -0.12599151 V 0.91939748 h 0.16685362 q 0.35754347,0 0.48694015,-0.16685361 0.12939668,-0.16344844 0.12939668,-0.68444035 z m 0,-1.4846567 H 1.2837513 v 0.793406 H 0.65719894 Z"
                                 id="path176" />
                            </g>
                            <g
                               aria-label="c"
                               transform="matrix(1,0,0,-1,83.164,7.133)"
                               id="text78"
                               style="font-size:9.9626px;font-family:LMMathItalic10;-inkscape-font-specification:LMMathItalic10-Regular">
                              <path
                                 d="m 4.8596861,-5.2391211 v 0.8367028 Q 4.4802512,-4.611594 4.0959517,-4.7137496 q -0.379435,-0.1070201 -0.768599,-0.1070201 -0.8707546,0 -1.3523451,0.5545588 -0.4815905,0.5496942 -0.4815905,1.5469271 0,0.9972329 0.4815905,1.5517916 0.4815905,0.54969427 1.3523451,0.54969427 0.389164,0 0.768599,-0.10215557 0.3842995,-0.10702011 0.7637344,-0.3161958 v 0.82697362 Q 4.4851157,-0.03405185 4.081358,0.05351006 3.6824649,0.14107197 3.2300616,0.14107197 q -1.2307313,0 -1.9555493,-0.77346356 -0.72481808,-0.77346351 -0.72481808,-2.08689221 0,-1.3328869 0.72968258,-2.0966214 0.7345472,-0.7637344 2.0090594,-0.7637344 0.4134869,0 0.8075155,0.087562 0.3940286,0.082697 0.7637344,0.2529566 z"
                                 id="path179" />
                            </g>
                            <g
                               aria-label="mm"
                               transform="matrix(1,0,0,-1,87.476,5.639)"
                               id="text82"
                               style="font-size:6.9738px;font-family:LMMathItalic7;-inkscape-font-specification:LMMathItalic7-Regular">
                              <path
                                 d="m 3.6265123,-3.0816842 q 0.2349571,-0.4222418 0.561854,-0.6231471 0.3268969,-0.2009054 0.7695698,-0.2009054 0.5959057,0 0.9193975,0.4188366 0.3234917,0.4154315 0.3234917,1.1850012 V 0 H 5.5708677 v -2.2814678 q 0,-0.5482333 -0.194095,-0.8138371 -0.194095,-0.2656037 -0.5925006,-0.2656037 -0.4869402,0 -0.7695697,0.3234917 -0.2826296,0.3234917 -0.2826296,0.8819406 V 0 H 3.1021152 v -2.2814678 q 0,-0.5516385 -0.194095,-0.8138371 -0.194095,-0.2656037 -0.599311,-0.2656037 -0.4801298,0 -0.7627594,0.3268969 Q 1.2633202,-2.71052 1.2633202,-2.1554763 V 0 H 0.63336271 V -3.813797 H 1.2633202 v 0.5925006 q 0.2145261,-0.3507331 0.5141816,-0.5175867 0.2996555,-0.1668536 0.7116818,-0.1668536 0.4154314,0 0.7048714,0.2111209 0.2928451,0.2111209 0.4324573,0.6129316 z"
                                 id="path182" />
                              <path
                                 d="m 10.695853,-3.0816842 q 0.234958,-0.4222418 0.561855,-0.6231471 0.326896,-0.2009054 0.769569,-0.2009054 0.595906,0 0.919398,0.4188366 0.323491,0.4154315 0.323491,1.1850012 V 0 h -0.629957 v -2.2814678 q 0,-0.5482333 -0.194095,-0.8138371 -0.194095,-0.2656037 -0.592501,-0.2656037 -0.48694,0 -0.769569,0.3234917 -0.28263,0.3234917 -0.28263,0.8819406 V 0 h -0.629958 v -2.2814678 q 0,-0.5516385 -0.1940946,-0.8138371 -0.194095,-0.2656037 -0.599311,-0.2656037 -0.4801298,0 -0.7627594,0.3268969 Q 8.3326614,-2.71052 8.3326614,-2.1554763 V 0 H 7.7027039 v -3.813797 h 0.6299575 v 0.5925006 q 0.2145261,-0.3507331 0.5141816,-0.5175867 0.2996555,-0.1668536 0.7116817,-0.1668536 0.4154315,0 0.7048713,0.2111209 0.292845,0.2111209 0.432457,0.6129316 z"
                                 id="path184" />
                            </g>
                            <g
                               aria-label="′"
                               transform="matrix(1,0,0,-1,101.615,7.631)"
                               id="text86"
                               style="font-size:4.9813px;font-family:LMMathSymbols5;-inkscape-font-specification:LMMathSymbols5-Regular">
                              <path
                                 d="M 0.09729101,-2.7241484 0.51807465,-3.6313871 H 1.0118265 l -0.70292753,0.9072387 z"
                                 id="path187" />
                            </g>
                            <g
                               id="g88"
                               transform="translate(71.772,7.133)" />
                          </g>
                        </g>
                        <g
                           id="g90"
                           transform="translate(16.518)" />
                      </g>
                    </g>
                  </g>
                  <g
                     id="g92"
                     transform="translate(71.046)">
                    <g
                       id="g94">
                      <g
                         id="g96">
                        <g
                           id="g98"
                           transform="translate(-22.039)">
                          <g
                             id="g100">
                            <g
                               id="g102"
                               transform="translate(-137.297,-7.133)">
                              <g
                                 aria-label="Σ"
                                 transform="matrix(1,0,0,-1,137.297,7.133)"
                                 id="text106"
                                 style="font-size:9.9626px;font-family:LMRoman10;-inkscape-font-specification:LMRoman10-Regular">
                                <path
                                   d="M 6.6251288,-2.3511735 H 6.3760638 C 6.196737,-0.68741938 5.5192803,-0.41842919 3.9551521,-0.41842919 H 1.2054746 L 3.7060871,-3.2478075 c 0.089663,-0.099626 0.089663,-0.1594016 0.089663,-0.1594016 0,-0.049813 -0.03985,-0.099626 -0.069738,-0.1394764 L 1.6836794,-6.495615 h 2.3013605 c 1.6836794,0 2.1818093,0.3586536 2.3910239,1.9327443 h 0.249065 L 6.346176,-6.8044556 H 0.81693318 c -0.23910239,0 -0.25902759,0 -0.25902759,0.2291398 l 2.48068731,3.6064611 -2.37109872,2.69986451 c -0.099626,0.10958859 -0.099626,0.12951379 -0.099626,0.15940159 C 0.56786819,0 0.66749418,0 0.81693318,0 H 6.346176 Z"
                                   id="path190" />
                              </g>
                              <g
                                 aria-label="j"
                                 transform="matrix(1,0,0,-1,144.492,10.748)"
                                 id="text110"
                                 style="font-size:6.9738px;font-family:LMMathItalic7;-inkscape-font-specification:LMMathItalic7-Regular">
                                <path
                                   d="M 0.65719894,-3.813797 H 1.2837513 v 3.88190052 q 0,0.72870763 -0.2792244,1.05560448 Q 0.72870764,1.4506049 0.1123708,1.4506049 H -0.12599151 V 0.91939748 h 0.16685362 q 0.35754347,0 0.48694015,-0.16685361 0.12939668,-0.16344844 0.12939668,-0.68444035 z m 0,-1.4846567 H 1.2837513 v 0.793406 H 0.65719894 Z"
                                   id="path193" />
                              </g>
                              <g
                                 aria-label="+1"
                                 transform="matrix(1,0,0,-1,148.192,10.748)"
                                 id="text114"
                                 style="font-size:6.9738px;font-family:LMRoman7;-inkscape-font-specification:LMRoman7-Regular">
                                <path
                                   d="m 5.0281099,-1.74345 c 0,-0.139476 -0.1325022,-0.139476 -0.2301354,-0.139476 H 2.8522843 v -1.9526641 c 0,-0.097633 0,-0.2301354 -0.139476,-0.2301354 -0.139476,0 -0.139476,0.1325022 -0.139476,0.2301354 V -1.882926 H 0.62066822 c -0.0976332,0 -0.23013541,0 -0.23013541,0.139476 0,0.139476 0.1325022,0.139476 0.23013541,0.139476 H 2.5733323 v 1.95266401 c 0,0.0976332 0,0.23013541 0.139476,0.23013541 0.139476,0 0.139476,-0.13250221 0.139476,-0.23013541 V -1.603974 h 1.9456902 c 0.097633,0 0.2301354,0 0.2301354,-0.139476 z"
                                   id="path196" />
                                <path
                                   d="M 9.0380449,0 V -0.21618781 H 8.8148833 c -0.6276421,0 -0.6485635,-0.0767118 -0.6485635,-0.3347424 V -4.4632321 c 0,-0.1673712 0,-0.1813188 -0.1603974,-0.1813188 -0.4323756,0.4463232 -1.04607,0.4463232 -1.2692316,0.4463232 v 0.2161878 c 0.139476,0 0.5509302,0 0.9135678,-0.1813188 v 3.61242849 c 0,0.2510568 -0.020921,0.3347424 -0.6485634,0.3347424 H 6.7785336 V 0 c 0.244083,-0.0209214 0.8508036,-0.0209214 1.1297556,-0.0209214 0.278952,0 0.8856727,0 1.1297557,0.0209214 z"
                                   id="path198" />
                              </g>
                              <g
                                 aria-label="a"
                                 transform="matrix(1,0,0,-1,158.777,7.133)"
                                 id="text118"
                                 style="font-size:9.9626px;font-family:LMMathItalic10;-inkscape-font-specification:LMMathItalic10-Regular">
                                <path
                                   d="m 3.4149146,-2.738742 q -1.0847948,0 -1.5031462,0.2480921 -0.4183513,0.248092 -0.4183513,0.8464318 0,0.4767259 0.3113312,0.75886988 0.3161958,0.27727939 0.8561609,0.27727939 0.7442763,0 1.1918149,-0.52537147 0.4524032,-0.530236 0.4524032,-1.4058551 V -2.738742 Z M 5.2002047,-3.1084479 V 0 H 4.3051273 v -0.82697361 q -0.3064667,0.49618417 -0.7637344,0.73454715 -0.4572678,0.23349843 -1.1188467,0.23349843 -0.8367027,0 -1.3328869,-0.46699686 -0.49131957,-0.47186142 -0.49131957,-1.25991861 0,-0.9194001 0.61293337,-1.386397 0.6177979,-0.4669968 1.8388002,-0.4669968 h 1.255054 v -0.087562 q 0,-0.617798 -0.4086222,-0.953452 -0.4037577,-0.3405185 -1.1383049,-0.3405185 -0.4669968,0 -0.9096709,0.1118847 -0.4426742,0.1118846 -0.85129641,0.335654 v -0.8269737 q 0.49131961,-0.1897174 0.95345191,-0.2821439 0.4621323,-0.097291 0.8999419,-0.097291 1.1820858,0 1.7658319,0.6129334 0.5837461,0.6129334 0.5837461,1.8582583 z"
                                   id="path201" />
                              </g>
                              <g
                                 aria-label="mm"
                                 transform="matrix(1,0,0,-1,164.043,5.639)"
                                 id="text122"
                                 style="font-size:6.9738px;font-family:LMMathItalic7;-inkscape-font-specification:LMMathItalic7-Regular">
                                <path
                                   d="m 3.6265123,-3.0816842 q 0.2349571,-0.4222418 0.561854,-0.6231471 0.3268969,-0.2009054 0.7695698,-0.2009054 0.5959057,0 0.9193975,0.4188366 0.3234917,0.4154315 0.3234917,1.1850012 V 0 H 5.5708677 v -2.2814678 q 0,-0.5482333 -0.194095,-0.8138371 -0.194095,-0.2656037 -0.5925006,-0.2656037 -0.4869402,0 -0.7695697,0.3234917 -0.2826296,0.3234917 -0.2826296,0.8819406 V 0 H 3.1021152 v -2.2814678 q 0,-0.5516385 -0.194095,-0.8138371 -0.194095,-0.2656037 -0.599311,-0.2656037 -0.4801298,0 -0.7627594,0.3268969 Q 1.2633202,-2.71052 1.2633202,-2.1554763 V 0 H 0.63336271 V -3.813797 H 1.2633202 v 0.5925006 q 0.2145261,-0.3507331 0.5141816,-0.5175867 0.2996555,-0.1668536 0.7116818,-0.1668536 0.4154314,0 0.7048714,0.2111209 0.2928451,0.2111209 0.4324573,0.6129316 z"
                                   id="path204" />
                                <path
                                   d="m 10.695853,-3.0816842 q 0.234958,-0.4222418 0.561855,-0.6231471 0.326896,-0.2009054 0.769569,-0.2009054 0.595906,0 0.919398,0.4188366 0.323491,0.4154315 0.323491,1.1850012 V 0 h -0.629957 v -2.2814678 q 0,-0.5482333 -0.194095,-0.8138371 -0.194095,-0.2656037 -0.592501,-0.2656037 -0.48694,0 -0.769569,0.3234917 -0.28263,0.3234917 -0.28263,0.8819406 V 0 h -0.629958 v -2.2814678 q 0,-0.5516385 -0.1940946,-0.8138371 -0.194095,-0.2656037 -0.599311,-0.2656037 -0.4801298,0 -0.7627594,0.3268969 Q 8.3326614,-2.71052 8.3326614,-2.1554763 V 0 H 7.7027039 v -3.813797 h 0.6299575 v 0.5925006 q 0.2145261,-0.3507331 0.5141816,-0.5175867 0.2996555,-0.1668536 0.7116817,-0.1668536 0.4154315,0 0.7048713,0.2111209 0.292845,0.2111209 0.432457,0.6129316 z"
                                   id="path206" />
                              </g>
                              <g
                                 aria-label="′"
                                 transform="matrix(1,0,0,-1,178.182,7.631)"
                                 id="text126"
                                 style="font-size:4.9813px;font-family:LMMathSymbols5;-inkscape-font-specification:LMMathSymbols5-Regular">
                                <path
                                   d="M 0.09729101,-2.7241484 0.51807465,-3.6313871 H 1.0118265 l -0.70292753,0.9072387 z"
                                   id="path209" />
                              </g>
                              <g
                                 id="g128"
                                 transform="translate(137.297,7.133)" />
                            </g>
                          </g>
                          <g
                             id="g130"
                             transform="translate(22.039)" />
                        </g>
                      </g>
                    </g>
                    <g
                       id="g132"
                       transform="translate(-157.343)" />
                  </g>
                </g>
              </g>
              <g
                 id="g134"
                 transform="translate(91.836,3.368)" />
            </g>
          </g>
          <g
             id="g136">
            <path
               d="m -50.05807,-0.87715 h 23.11361"
               style="fill:currentColor;stroke:currentColor;stroke-width:0.39848;stroke-linecap:butt;stroke-linejoin:miter;stroke-miterlimit:10;stroke-dasharray:none;stroke-opacity:1"
               id="path138" />
            <g
               id="g140"
               transform="translate(-26.74522,-0.87715)">
              <g
                 id="g142">
                <path
                   d="M -2.07213,2.39091 C -1.69356,0.95633 -0.84995,0.27893 0,0 -0.84995,-0.27893 -1.69356,-0.95633 -2.07213,-2.39091"
                   style="fill:currentColor;stroke:currentColor;stroke-width:0.39848;stroke-linecap:round;stroke-linejoin:round;stroke-miterlimit:10;stroke-dasharray:none;stroke-opacity:1"
                   id="path144" />
              </g>
            </g>
          </g>
          <g
             id="g146">
            <path
               d="m 15.46819,-0.87715 h 23.1136"
               style="fill:currentColor;stroke:currentColor;stroke-width:0.39848;stroke-linecap:butt;stroke-linejoin:miter;stroke-miterlimit:10;stroke-dasharray:none;stroke-opacity:1"
               id="path148" />
            <g
               id="g150"
               transform="translate(38.78104,-0.87715)">
              <g
                 id="g152">
                <path
                   d="M -2.07213,2.39091 C -1.69356,0.95633 -0.84995,0.27893 0,0 -0.84995,-0.27893 -1.69356,-0.95633 -2.07213,-2.39091"
                   style="fill:currentColor;stroke:currentColor;stroke-width:0.39848;stroke-linecap:round;stroke-linejoin:round;stroke-miterlimit:10;stroke-dasharray:none;stroke-opacity:1"
                   id="path154" />
              </g>
            </g>
          </g>
        </g>
      </g>
    </g>
  </g>
</svg>
