<?xml version="1.0" encoding="UTF-8" standalone="no"?>
<!-- Created with Inkscape (http://www.inkscape.org/) -->

<svg
   version="1.1"
   id="svg2"
   width="231.83467"
   height="18.278667"
   viewBox="0 0 231.83467 18.278667"
   xmlns="http://www.w3.org/2000/svg"
   xmlns:svg="http://www.w3.org/2000/svg">
  <defs
     id="defs6" />
  <g
     id="g8"
     transform="matrix(1.3333333,0,0,-1.3333333,0,18.278667)">
    <g
       id="g10"
       transform="translate(86.938,6.855)">
      <g
         id="g12">
        <g
           id="g14">
          <g
             id="g16">
            <g
               id="g18"
               transform="translate(-87.934,-3.368)">
              <g
                 id="g20"
                 transform="translate(19.489)">
                <g
                   id="g22">
                  <g
                     id="g24">
                    <g
                       id="g26"
                       transform="translate(-16.5)">
                      <g
                         id="g28">
                        <g
                           id="g30"
                           transform="translate(-1.993,-3.487)">
                          <g
                             aria-label="Σ"
                             transform="matrix(1,0,0,-1,1.993,3.487)"
                             id="text34"
                             style="font-size:9.9626px;font-family:LMRoman10;-inkscape-font-specification:LMRoman10-Regular">
                            <path
                               d="M 6.6251288,-2.3511735 H 6.3760638 C 6.196737,-0.68741938 5.5192803,-0.41842919 3.9551521,-0.41842919 H 1.2054746 L 3.7060871,-3.2478075 c 0.089663,-0.099626 0.089663,-0.1594016 0.089663,-0.1594016 0,-0.049813 -0.03985,-0.099626 -0.069738,-0.1394764 L 1.6836794,-6.495615 h 2.3013605 c 1.6836794,0 2.1818093,0.3586536 2.3910239,1.9327443 h 0.249065 L 6.346176,-6.8044556 H 0.81693318 c -0.23910239,0 -0.25902759,0 -0.25902759,0.2291398 l 2.48068731,3.6064611 -2.37109872,2.69986451 c -0.099626,0.10958859 -0.099626,0.12951379 -0.099626,0.15940159 C 0.56786819,0 0.66749418,0 0.81693318,0 H 6.346176 Z"
                               id="path156" />
                          </g>
                          <g
                             aria-label="j"
                             transform="matrix(1,0,0,-1,9.188,7.102)"
                             id="text38"
                             style="font-size:6.9738px;font-family:LMMathItalic7;-inkscape-font-specification:LMMathItalic7-Regular">
                            <path
                               d="m 0.54395641,-4.7491579 q 0,-0.2022402 0.10460701,-0.2928996 0.104607,-0.097633 0.2580306,-0.097633 0.13947598,0 0.24408298,0.097633 0.1115808,0.090659 0.1115808,0.2928996 0,0.1952664 -0.1115808,0.2928996 -0.104607,0.097633 -0.24408298,0.097633 -0.1534236,0 -0.2580306,-0.097633 -0.10460701,-0.097633 -0.10460701,-0.2928996 z M 0.1534236,1.673712 q -0.174345,0 -0.3068472,-0.027895 -0.13250221,-0.020921 -0.23013541,-0.05579 V 1.0948866 q 0.104607,0.027895 0.21618781,0.048817 0.1115808,0.020921 0.244083,0.020921 0.22316161,0 0.36961141,-0.1255284 Q 0.59277302,0.92054162 0.59277302,0.57882542 V -3.7379569 H 1.2064674 v 4.29586091 q 0,0.52303499 -0.25105678,0.81593459 Q 0.70435382,1.673712 0.1534236,1.673712 Z"
                               id="path159" />
                          </g>
                          <g
                             aria-label="b"
                             transform="matrix(1,0,0,-1,13.385,3.487)"
                             id="text42"
                             style="font-size:9.9626px;font-family:LMMathItalic10;-inkscape-font-specification:LMMathItalic10-Regular">
                            <path
                               d="m 1.7235298,-5.7284949 q 0,0.3387284 -0.019925,0.6376064 -0.00996,0.2889154 -0.029888,0.4582796 h 0.049813 q 0.2291398,-0.3387284 0.6276437,-0.5678682 0.398504,-0.2291398 1.0261478,-0.2291398 0.99626,0 1.594016,0.697382 0.6077186,0.6874194 0.6077186,2.0622582 0,1.3748387 -0.6077186,2.07222071 Q 4.3636187,0.099626 3.3773213,0.099626 q -0.6276438,0 -1.0261478,-0.2291398 Q 1.9526696,-0.35865359 1.7235298,-0.67745678 H 1.6537916 L 1.4744648,0 H 0.84682098 V -7.5715758 H 1.7235298 Z m 1.5043525,1.0261478 q -0.846821,0 -1.1755868,0.4881674 -0.3287657,0.4881674 -0.3287657,1.5143152 v 0.03985 q 0,0.9862973 0.3188031,1.5143151 0.3287658,0.51805522 1.2054746,0.51805522 0.7173072,0 1.0659982,-0.52801782 0.3586536,-0.5280178 0.3586536,-1.5242777 0,-2.0224078 -1.444577,-2.0224078 z"
                               id="path162" />
                          </g>
                          <g
                             aria-label="mm"
                             transform="matrix(1,0,0,-1,17.661,1.993)"
                             id="text46"
                             style="font-size:6.9738px;font-family:LMMathItalic7;-inkscape-font-specification:LMMathItalic7-Regular">
                            <path
                               d="m 4.6933675,-3.8076949 q 0.6346158,0 0.9484368,0.3277686 0.3138211,0.3207948 0.3138211,1.04607 V 0 H 5.3489047 v -2.4059611 q 0,-0.8856726 -0.7601442,-0.8856726 -0.5439564,0 -0.7810656,0.313821 -0.2301354,0.313821 -0.2301354,0.9135678 V 0 H 2.9708389 v -2.4059611 q 0,-0.8856726 -0.767118,-0.8856726 -0.5648779,0 -0.7810657,0.34869 -0.2161878,0.34869 -0.2161878,1.0042272 V 0 H 0.59277302 V -3.7379569 H 1.0879128 l 0.090659,0.5090874 h 0.034869 q 0.174345,-0.2928996 0.4672446,-0.4323756 0.2998735,-0.1464498 0.6346159,-0.1464498 0.8786988,0 1.1437032,0.627642 h 0.034869 q 0.1882926,-0.3207948 0.5090874,-0.4742184 0.3277686,-0.1534236 0.6904062,-0.1534236 z"
                               id="path165" />
                            <path
                               d="m 11.762709,-3.8076949 q 0.634616,0 0.948437,0.3277686 0.313821,0.3207948 0.313821,1.04607 V 0 h -0.606721 v -2.4059611 q 0,-0.8856726 -0.760144,-0.8856726 -0.543957,0 -0.781066,0.313821 -0.230135,0.313821 -0.230135,0.9135678 V 0 H 10.04018 v -2.4059611 q 0,-0.8856726 -0.767118,-0.8856726 -0.5648778,0 -0.7810656,0.34869 -0.2161878,0.34869 -0.2161878,1.0042272 V 0 H 7.6621142 V -3.7379569 H 8.157254 l 0.090659,0.5090874 h 0.034869 q 0.174345,-0.2928996 0.4672446,-0.4323756 0.2998734,-0.1464498 0.6346158,-0.1464498 0.8786992,0 1.1437032,0.627642 h 0.03487 q 0.188293,-0.3207948 0.509087,-0.4742184 0.327769,-0.1534236 0.690407,-0.1534236 z"
                               id="path167" />
                          </g>
                          <g
                             aria-label="′"
                             transform="matrix(1,0,0,-1,31.8,3.985)"
                             id="text50"
                             style="font-size:4.9813px;font-family:LMMathSymbols5;-inkscape-font-specification:LMMathSymbols5-Regular">
                            <path
                               d="M 0.83685838,-3.5566481 H 1.2851754 L 0.48318609,-2.2714727 H 0.1942707 Z"
                               id="path170" />
                          </g>
                          <g
                             id="g52"
                             transform="translate(1.993,3.487)" />
                        </g>
                      </g>
                      <g
                         id="g54"
                         transform="translate(16.5)" />
                    </g>
                  </g>
                </g>
                <g
                   id="g56"
                   transform="translate(62.906)">
                  <g
                     id="g58">
                    <g
                       id="g60">
                      <g
                         id="g62"
                         transform="translate(-16.518)">
                        <g
                           id="g64">
                          <g
                             id="g66"
                             transform="translate(-64.881,-3.487)">
                            <g
                               aria-label="Σ"
                               transform="matrix(1,0,0,-1,64.881,3.487)"
                               id="text70"
                               style="font-size:9.9626px;font-family:LMRoman10;-inkscape-font-specification:LMRoman10-Regular">
                              <path
                                 d="M 6.6251288,-2.3511735 H 6.3760638 C 6.196737,-0.68741938 5.5192803,-0.41842919 3.9551521,-0.41842919 H 1.2054746 L 3.7060871,-3.2478075 c 0.089663,-0.099626 0.089663,-0.1594016 0.089663,-0.1594016 0,-0.049813 -0.03985,-0.099626 -0.069738,-0.1394764 L 1.6836794,-6.495615 h 2.3013605 c 1.6836794,0 2.1818093,0.3586536 2.3910239,1.9327443 h 0.249065 L 6.346176,-6.8044556 H 0.81693318 c -0.23910239,0 -0.25902759,0 -0.25902759,0.2291398 l 2.48068731,3.6064611 -2.37109872,2.69986451 c -0.099626,0.10958859 -0.099626,0.12951379 -0.099626,0.15940159 C 0.56786819,0 0.66749418,0 0.81693318,0 H 6.346176 Z"
                                 id="path173" />
                            </g>
                            <g
                               aria-label="j"
                               transform="matrix(1,0,0,-1,72.076,7.102)"
                               id="text74"
                               style="font-size:6.9738px;font-family:LMMathItalic7;-inkscape-font-specification:LMMathItalic7-Regular">
                              <path
                                 d="m 0.54395641,-4.7491579 q 0,-0.2022402 0.10460701,-0.2928996 0.104607,-0.097633 0.2580306,-0.097633 0.13947598,0 0.24408298,0.097633 0.1115808,0.090659 0.1115808,0.2928996 0,0.1952664 -0.1115808,0.2928996 -0.104607,0.097633 -0.24408298,0.097633 -0.1534236,0 -0.2580306,-0.097633 -0.10460701,-0.097633 -0.10460701,-0.2928996 z M 0.1534236,1.673712 q -0.174345,0 -0.3068472,-0.027895 -0.13250221,-0.020921 -0.23013541,-0.05579 V 1.0948866 q 0.104607,0.027895 0.21618781,0.048817 0.1115808,0.020921 0.244083,0.020921 0.22316161,0 0.36961141,-0.1255284 Q 0.59277302,0.92054162 0.59277302,0.57882542 V -3.7379569 H 1.2064674 v 4.29586091 q 0,0.52303499 -0.25105678,0.81593459 Q 0.70435382,1.673712 0.1534236,1.673712 Z"
                                 id="path176" />
                            </g>
                            <g
                               aria-label="c"
                               transform="matrix(1,0,0,-1,76.274,3.487)"
                               id="text78"
                               style="font-size:9.9626px;font-family:LMMathItalic10;-inkscape-font-specification:LMMathItalic10-Regular">
                              <path
                                 d="m 2.9887799,0.099626 q -0.7073446,0 -1.2652501,-0.2889154 -0.547943,-0.28891539 -0.86674622,-0.896634 -0.30884059,-0.6077186 -0.30884059,-1.5541655 0,-0.9862974 0.32876579,-1.6039786 0.32876582,-0.6176812 0.88667142,-0.9065966 0.5678681,-0.2889154 1.2851753,-0.2889154 0.4084666,0 0.7870454,0.089663 0.3785788,0.079701 0.6176812,0.199252 l -0.2689902,0.7272698 q -0.2391024,-0.089663 -0.5579056,-0.1693642 -0.3188032,-0.079701 -0.597756,-0.079701 -1.5740907,0 -1.5740907,2.0224078 0,0.9663721 0.3785788,1.4844273 0.3885413,0.50809262 1.1456989,0.50809262 0.4383544,0 0.7671202,-0.0896634 0.3387284,-0.0896634 0.6176812,-0.2191772 V -0.1892894 Q 4.0946285,-0.049813 3.7658627,0.0199252 3.4470595,0.099626 2.9887799,0.099626 Z"
                                 id="path179" />
                            </g>
                            <g
                               aria-label="mm"
                               transform="matrix(1,0,0,-1,80.585,1.993)"
                               id="text82"
                               style="font-size:6.9738px;font-family:LMMathItalic7;-inkscape-font-specification:LMMathItalic7-Regular">
                              <path
                                 d="m 4.6933675,-3.8076949 q 0.6346158,0 0.9484368,0.3277686 0.3138211,0.3207948 0.3138211,1.04607 V 0 H 5.3489047 v -2.4059611 q 0,-0.8856726 -0.7601442,-0.8856726 -0.5439564,0 -0.7810656,0.313821 -0.2301354,0.313821 -0.2301354,0.9135678 V 0 H 2.9708389 v -2.4059611 q 0,-0.8856726 -0.767118,-0.8856726 -0.5648779,0 -0.7810657,0.34869 -0.2161878,0.34869 -0.2161878,1.0042272 V 0 H 0.59277302 V -3.7379569 H 1.0879128 l 0.090659,0.5090874 h 0.034869 q 0.174345,-0.2928996 0.4672446,-0.4323756 0.2998735,-0.1464498 0.6346159,-0.1464498 0.8786988,0 1.1437032,0.627642 h 0.034869 q 0.1882926,-0.3207948 0.5090874,-0.4742184 0.3277686,-0.1534236 0.6904062,-0.1534236 z"
                                 id="path182" />
                              <path
                                 d="m 11.762709,-3.8076949 q 0.634616,0 0.948437,0.3277686 0.313821,0.3207948 0.313821,1.04607 V 0 h -0.606721 v -2.4059611 q 0,-0.8856726 -0.760144,-0.8856726 -0.543957,0 -0.781066,0.313821 -0.230135,0.313821 -0.230135,0.9135678 V 0 H 10.04018 v -2.4059611 q 0,-0.8856726 -0.767118,-0.8856726 -0.5648778,0 -0.7810656,0.34869 -0.2161878,0.34869 -0.2161878,1.0042272 V 0 H 7.6621142 V -3.7379569 H 8.157254 l 0.090659,0.5090874 h 0.034869 q 0.174345,-0.2928996 0.4672446,-0.4323756 0.2998734,-0.1464498 0.6346158,-0.1464498 0.8786992,0 1.1437032,0.627642 h 0.03487 q 0.188293,-0.3207948 0.509087,-0.4742184 0.327769,-0.1534236 0.690407,-0.1534236 z"
                                 id="path184" />
                            </g>
                            <g
                               aria-label="′"
                               transform="matrix(1,0,0,-1,94.724,3.985)"
                               id="text86"
                               style="font-size:4.9813px;font-family:LMMathSymbols5;-inkscape-font-specification:LMMathSymbols5-Regular">
                              <path
                                 d="M 0.83685838,-3.5566481 H 1.2851754 L 0.48318609,-2.2714727 H 0.1942707 Z"
                                 id="path187" />
                            </g>
                            <g
                               id="g88"
                               transform="translate(64.881,3.487)" />
                          </g>
                        </g>
                        <g
                           id="g90"
                           transform="translate(16.518)" />
                      </g>
                    </g>
                  </g>
                  <g
                     id="g92"
                     transform="translate(68.445)">
                    <g
                       id="g94">
                      <g
                         id="g96">
                        <g
                           id="g98"
                           transform="translate(-22.039)">
                          <g
                             id="g100">
                            <g
                               id="g102"
                               transform="translate(-127.805,-3.487)">
                              <g
                                 aria-label="Σ"
                                 transform="matrix(1,0,0,-1,127.805,3.487)"
                                 id="text106"
                                 style="font-size:9.9626px;font-family:LMRoman10;-inkscape-font-specification:LMRoman10-Regular">
                                <path
                                   d="M 6.6251288,-2.3511735 H 6.3760638 C 6.196737,-0.68741938 5.5192803,-0.41842919 3.9551521,-0.41842919 H 1.2054746 L 3.7060871,-3.2478075 c 0.089663,-0.099626 0.089663,-0.1594016 0.089663,-0.1594016 0,-0.049813 -0.03985,-0.099626 -0.069738,-0.1394764 L 1.6836794,-6.495615 h 2.3013605 c 1.6836794,0 2.1818093,0.3586536 2.3910239,1.9327443 h 0.249065 L 6.346176,-6.8044556 H 0.81693318 c -0.23910239,0 -0.25902759,0 -0.25902759,0.2291398 l 2.48068731,3.6064611 -2.37109872,2.69986451 c -0.099626,0.10958859 -0.099626,0.12951379 -0.099626,0.15940159 C 0.56786819,0 0.66749418,0 0.81693318,0 H 6.346176 Z"
                                   id="path190" />
                              </g>
                              <g
                                 aria-label="j"
                                 transform="matrix(1,0,0,-1,135,7.102)"
                                 id="text110"
                                 style="font-size:6.9738px;font-family:LMMathItalic7;-inkscape-font-specification:LMMathItalic7-Regular">
                                <path
                                   d="m 0.54395641,-4.7491579 q 0,-0.2022402 0.10460701,-0.2928996 0.104607,-0.097633 0.2580306,-0.097633 0.13947598,0 0.24408298,0.097633 0.1115808,0.090659 0.1115808,0.2928996 0,0.1952664 -0.1115808,0.2928996 -0.104607,0.097633 -0.24408298,0.097633 -0.1534236,0 -0.2580306,-0.097633 -0.10460701,-0.097633 -0.10460701,-0.2928996 z M 0.1534236,1.673712 q -0.174345,0 -0.3068472,-0.027895 -0.13250221,-0.020921 -0.23013541,-0.05579 V 1.0948866 q 0.104607,0.027895 0.21618781,0.048817 0.1115808,0.020921 0.244083,0.020921 0.22316161,0 0.36961141,-0.1255284 Q 0.59277302,0.92054162 0.59277302,0.57882542 V -3.7379569 H 1.2064674 v 4.29586091 q 0,0.52303499 -0.25105678,0.81593459 Q 0.70435382,1.673712 0.1534236,1.673712 Z"
                                   id="path193" />
                              </g>
                              <g
                                 aria-label="+1"
                                 transform="matrix(1,0,0,-1,138.7,7.102)"
                                 id="text114"
                                 style="font-size:6.9738px;font-family:LMRoman7;-inkscape-font-specification:LMRoman7-Regular">
                                <path
                                   d="m 5.0281099,-1.74345 c 0,-0.139476 -0.1325022,-0.139476 -0.2301354,-0.139476 H 2.8522843 v -1.9526641 c 0,-0.097633 0,-0.2301354 -0.139476,-0.2301354 -0.139476,0 -0.139476,0.1325022 -0.139476,0.2301354 V -1.882926 H 0.62066822 c -0.0976332,0 -0.23013541,0 -0.23013541,0.139476 0,0.139476 0.1325022,0.139476 0.23013541,0.139476 H 2.5733323 v 1.95266401 c 0,0.0976332 0,0.23013541 0.139476,0.23013541 0.139476,0 0.139476,-0.13250221 0.139476,-0.23013541 V -1.603974 h 1.9456902 c 0.097633,0 0.2301354,0 0.2301354,-0.139476 z"
                                   id="path196" />
                                <path
                                   d="M 9.0380449,0 V -0.21618781 H 8.8148833 c -0.6276421,0 -0.6485635,-0.0767118 -0.6485635,-0.3347424 V -4.4632321 c 0,-0.1673712 0,-0.1813188 -0.1603974,-0.1813188 -0.4323756,0.4463232 -1.04607,0.4463232 -1.2692316,0.4463232 v 0.2161878 c 0.139476,0 0.5509302,0 0.9135678,-0.1813188 v 3.61242849 c 0,0.2510568 -0.020921,0.3347424 -0.6485634,0.3347424 H 6.7785336 V 0 c 0.244083,-0.0209214 0.8508036,-0.0209214 1.1297556,-0.0209214 0.278952,0 0.8856727,0 1.1297557,0.0209214 z"
                                   id="path198" />
                              </g>
                              <g
                                 aria-label="a"
                                 transform="matrix(1,0,0,-1,149.285,3.487)"
                                 id="text118"
                                 style="font-size:9.9626px;font-family:LMMathItalic10;-inkscape-font-specification:LMMathItalic10-Regular">
                                <path
                                   d="m 2.8692287,-5.4296169 q 0.9763348,0 1.444577,0.4283918 0.4682422,0.4283918 0.4682422,1.3648762 V 0 H 4.1444415 L 3.9750773,-0.75715758 h -0.03985 Q 3.5865359,-0.31880319 3.1979945,-0.1095886 2.8194157,0.099626 2.1419589,0.099626 q -0.7272697,0 -1.20547452,-0.37857879 -0.47820479,-0.38854139 -0.47820479,-1.20547461 0,-0.7970079 0.62764381,-1.2253997 0.6276438,-0.4383544 1.9327443,-0.4782048 l 0.9065966,-0.029888 v -0.3188032 q 0,-0.6674942 -0.2889154,-0.9265218 -0.2889154,-0.2590276 -0.8169332,-0.2590276 -0.4184292,0 -0.7970079,0.1295138 -0.3785788,0.1195512 -0.7073446,0.2789528 L 1.046073,-4.9713373 q 0.348691,-0.1892894 0.8268958,-0.3188032 0.4782047,-0.1394764 0.9962599,-0.1394764 z m 0.2590276,2.8493036 q -0.99626,0.03985 -1.3848013,0.3188032 -0.3785788,0.2789527 -0.3785788,0.7870453 0,0.448317 0.2689902,0.65753162 0.2789528,0.20921459 0.7073445,0.20921459 0.6774568,0 1.1257738,-0.36861619 0.448317,-0.37857882 0.448317,-1.15566152 v -0.4782048 z"
                                   id="path201" />
                              </g>
                              <g
                                 aria-label="mm"
                                 transform="matrix(1,0,0,-1,154.551,1.993)"
                                 id="text122"
                                 style="font-size:6.9738px;font-family:LMMathItalic7;-inkscape-font-specification:LMMathItalic7-Regular">
                                <path
                                   d="m 4.6933675,-3.8076949 q 0.6346158,0 0.9484368,0.3277686 0.3138211,0.3207948 0.3138211,1.04607 V 0 H 5.3489047 v -2.4059611 q 0,-0.8856726 -0.7601442,-0.8856726 -0.5439564,0 -0.7810656,0.313821 -0.2301354,0.313821 -0.2301354,0.9135678 V 0 H 2.9708389 v -2.4059611 q 0,-0.8856726 -0.767118,-0.8856726 -0.5648779,0 -0.7810657,0.34869 -0.2161878,0.34869 -0.2161878,1.0042272 V 0 H 0.59277302 V -3.7379569 H 1.0879128 l 0.090659,0.5090874 h 0.034869 q 0.174345,-0.2928996 0.4672446,-0.4323756 0.2998735,-0.1464498 0.6346159,-0.1464498 0.8786988,0 1.1437032,0.627642 h 0.034869 q 0.1882926,-0.3207948 0.5090874,-0.4742184 0.3277686,-0.1534236 0.6904062,-0.1534236 z"
                                   id="path204" />
                                <path
                                   d="m 11.762709,-3.8076949 q 0.634616,0 0.948437,0.3277686 0.313821,0.3207948 0.313821,1.04607 V 0 h -0.606721 v -2.4059611 q 0,-0.8856726 -0.760144,-0.8856726 -0.543957,0 -0.781066,0.313821 -0.230135,0.313821 -0.230135,0.9135678 V 0 H 10.04018 v -2.4059611 q 0,-0.8856726 -0.767118,-0.8856726 -0.5648778,0 -0.7810656,0.34869 -0.2161878,0.34869 -0.2161878,1.0042272 V 0 H 7.6621142 V -3.7379569 H 8.157254 l 0.090659,0.5090874 h 0.034869 q 0.174345,-0.2928996 0.4672446,-0.4323756 0.2998734,-0.1464498 0.6346158,-0.1464498 0.8786992,0 1.1437032,0.627642 h 0.03487 q 0.188293,-0.3207948 0.509087,-0.4742184 0.327769,-0.1534236 0.690407,-0.1534236 z"
                                   id="path206" />
                              </g>
                              <g
                                 aria-label="′"
                                 transform="matrix(1,0,0,-1,168.691,3.985)"
                                 id="text126"
                                 style="font-size:4.9813px;font-family:LMMathSymbols5;-inkscape-font-specification:LMMathSymbols5-Regular">
                                <path
                                   d="M 0.83685838,-3.5566481 H 1.2851754 L 0.48318609,-2.2714727 H 0.1942707 Z"
                                   id="path209" />
                              </g>
                              <g
                                 id="g128"
                                 transform="translate(127.805,3.487)" />
                            </g>
                          </g>
                          <g
                             id="g130"
                             transform="translate(22.039)" />
                        </g>
                      </g>
                    </g>
                    <g
                       id="g132"
                       transform="translate(-150.84)" />
                  </g>
                </g>
              </g>
              <g
                 id="g134"
                 transform="translate(87.934,3.368)" />
            </g>
          </g>
          <g
             id="g136">
            <path
               d="m -48.75745,-0.87715 h 23.11361"
               style="fill:none;stroke:#000000;stroke-width:0.39848;stroke-linecap:butt;stroke-linejoin:miter;stroke-miterlimit:10;stroke-dasharray:none;stroke-opacity:1"
               id="path138" />
            <g
               id="g140"
               transform="translate(-25.44461,-0.87715)">
              <g
                 id="g142">
                <path
                   d="M -2.07213,2.39091 C -1.69356,0.95633 -0.84995,0.27893 0,0 -0.84995,-0.27893 -1.69356,-0.95633 -2.07213,-2.39091"
                   style="fill:none;stroke:#000000;stroke-width:0.39848;stroke-linecap:round;stroke-linejoin:round;stroke-miterlimit:10;stroke-dasharray:none;stroke-opacity:1"
                   id="path144" />
              </g>
            </g>
          </g>
          <g
             id="g146">
            <path
               d="M 14.1676,-0.87715 H 37.2812"
               style="fill:none;stroke:#000000;stroke-width:0.39848;stroke-linecap:butt;stroke-linejoin:miter;stroke-miterlimit:10;stroke-dasharray:none;stroke-opacity:1"
               id="path148" />
            <g
               id="g150"
               transform="translate(37.48044,-0.87715)">
              <g
                 id="g152">
                <path
                   d="M -2.07213,2.39091 C -1.69356,0.95633 -0.84995,0.27893 0,0 -0.84995,-0.27893 -1.69356,-0.95633 -2.07213,-2.39091"
                   style="fill:none;stroke:#000000;stroke-width:0.39848;stroke-linecap:round;stroke-linejoin:round;stroke-miterlimit:10;stroke-dasharray:none;stroke-opacity:1"
                   id="path154" />
              </g>
            </g>
          </g>
        </g>
      </g>
    </g>
  </g>
</svg>
