<?xml version="1.0" encoding="UTF-8" standalone="no"?>
<!-- Created with Inkscape (http://www.inkscape.org/) -->

<svg
   version="1.1"
   id="svg2"
   width="80.776001"
   height="27.745333"
   viewBox="0 0 80.776001 27.745333"
   xmlns="http://www.w3.org/2000/svg"
   xmlns:svg="http://www.w3.org/2000/svg">
  <defs
     id="defs6" />
  <g
     id="g8"
     transform="matrix(1.3333333,0,0,-1.3333333,0,27.745333)">
    <g
       id="g10"
       transform="translate(30.291,9.042)">
      <g
         id="g12">
        <g
           id="g14">
          <g
             id="g16">
            <g
               id="g18"
               transform="translate(-28.298,-3.403)">
              <g
                 id="g20"
                 transform="translate(8.025)">
                <g
                   id="g22">
                  <g
                     id="g24">
                    <g
                       id="g26"
                       transform="translate(-3.736)">
                      <g
                         id="g28">
                        <g
                           id="g30"
                           transform="translate(-6.282,-5.639)">
                          <g
                             aria-label="A"
                             transform="matrix(1,0,0,-1,6.282,5.639)"
                             id="text34"
                             style="font-size:9.9626px;font-family:CMMI10;-inkscape-font-specification:CMMI10">
                            <path
                               d="M 3.4051855,-6.2947286 2.0722986,-2.6803674 H 4.7429369 Z M 2.8506267,-7.2627741 H 3.9646088 L 6.7325381,0 H 5.7109825 L 5.0494036,-1.8631229 H 1.775561 L 1.1139821,0 H 0.07783281 Z"
                               id="path90" />
                          </g>
                          <g
                             id="g36"
                             transform="translate(6.282,5.639)" />
                        </g>
                      </g>
                      <g
                         id="g38"
                         transform="translate(3.736)" />
                    </g>
                  </g>
                </g>
                <g
                   id="g40"
                   transform="translate(40.253)">
                  <g
                     id="g42">
                    <g
                       id="g44">
                      <g
                         id="g46"
                         transform="translate(-4.028)">
                        <g
                           id="g48">
                          <g
                             id="g50"
                             transform="translate(-46.243,-5.639)">
                            <g
                               aria-label="B"
                               transform="matrix(1,0,0,-1,46.243,5.639)"
                               id="text54"
                               style="font-size:9.9626px;font-family:CMMI10;-inkscape-font-specification:CMMI10">
                              <path
                                 d="m 1.9604139,-3.4684246 v 2.66090919 h 1.5761144 q 0.7929218,0 1.1723567,-0.32592489 0.3842995,-0.3307894 0.3842995,-1.006962 0,-0.6810371 -0.3842995,-1.0020974 -0.3794349,-0.3259249 -1.1723567,-0.3259249 z m 0,-2.9868341 v 2.1890478 h 1.4545007 q 0.7199535,0 1.0702011,-0.2675503 0.3551122,-0.2724149 0.3551122,-0.8269736 0,-0.5496943 -0.3551122,-0.8221091 Q 4.1348681,-6.4552587 3.4149146,-6.4552587 Z M 0.97777468,-7.2627741 H 3.4878828 q 1.1237112,0 1.7317801,0.4669968 0.6080688,0.4669969 0.6080688,1.3280224 0,0.6664434 -0.3113313,1.060472 -0.3113312,0.3940286 -0.9145355,0.4913196 0.7248181,0.1556656 1.1237112,0.6518498 0.4037577,0.4913196 0.4037577,1.2307313 0,0.9729102 -0.6615789,1.50314618 Q 4.8061761,0 3.5851738,0 H 0.97777468 Z"
                                 id="path93" />
                            </g>
                            <g
                               id="g56"
                               transform="translate(46.243,5.639)" />
                          </g>
                        </g>
                        <g
                           id="g58"
                           transform="translate(4.028)" />
                      </g>
                    </g>
                  </g>
                  <g
                     id="g60"
                     transform="translate(-48.278)" />
                </g>
              </g>
              <g
                 id="g62"
                 transform="translate(28.298,3.403)" />
            </g>
          </g>
          <g
             id="g64">
            <path
               d="M -12.04836,-0.91324 H 11.06526"
               style="fill:currentColor;stroke:currentColor;stroke-width:0.39848;stroke-linecap:butt;stroke-linejoin:miter;stroke-miterlimit:10;stroke-dasharray:none;stroke-opacity:1"
               id="path66" />
            <g
               id="g68"
               transform="translate(11.26451,-0.91324)">
              <g
                 id="g70">
                <path
                   d="M -2.07213,2.39091 C -1.69356,0.95633 -0.84995,0.27893 0,0 -0.84995,-0.27893 -1.69356,-0.95633 -2.07213,-2.39091"
                   style="fill:currentColor;stroke:currentColor;stroke-width:0.39848;stroke-linecap:round;stroke-linejoin:round;stroke-miterlimit:10;stroke-dasharray:none;stroke-opacity:1"
                   id="path72" />
              </g>
            </g>
            <g
               id="g74">
              <g
                 id="g76"
                 transform="translate(-2.626,2.787)">
                <g
                   id="g78">
                  <g
                     id="g80"
                     transform="translate(-27.665,-11.829)">
                    <g
                       aria-label="f"
                       transform="matrix(1,0,0,-1,27.665,11.829)"
                       id="text84"
                       style="font-size:6.9738px;font-family:CMMI7;-inkscape-font-specification:CMMI7">
                      <path
                         d="m 2.5879337,-5.2984537 v 0.520992 h -0.599311 q -0.3371124,0 -0.4699143,0.136207 -0.1293966,0.136207 -0.1293966,0.4903453 V -3.813797 H 2.42108 v 0.4869402 H 1.3893118 V 0 H 0.75935422 V -3.3268568 H 0.16004327 V -3.813797 h 0.59931095 v -0.2656037 q 0,-0.6367679 0.29625028,-0.9262078 0.2962503,-0.2928452 0.9398286,-0.2928452 z"
                         id="path96" />
                    </g>
                    <g
                       id="g86"
                       transform="translate(27.665,11.829)" />
                  </g>
                </g>
                <g
                   id="g88"
                   transform="translate(2.626,-2.787)" />
              </g>
            </g>
          </g>
        </g>
      </g>
    </g>
  </g>
</svg>
