<?xml version="1.0" encoding="UTF-8" standalone="no"?>
<!-- Created with Inkscape (http://www.inkscape.org/) -->

<svg
   version="1.1"
   id="svg2"
   width="243.37334"
   height="24.106667"
   viewBox="0 0 243.37334 24.106667"
   xmlns="http://www.w3.org/2000/svg"
   xmlns:svg="http://www.w3.org/2000/svg">
  <defs
     id="defs6" />
  <g
     id="g8"
     transform="matrix(1.3333333,0,0,-1.3333333,0,24.106667)">
    <g
       id="g10"
       transform="translate(72,-53.922)">
      <g
         id="g12"
         transform="translate(19.265,62.961)">
        <g
           id="g14">
          <g
             id="g16">
            <g
               id="g18">
              <g
                 id="g20">
                <g
                   id="g22"
                   transform="scale(-1)">
                  <g
                     id="g24" />
                  <g
                     id="g26"
                     transform="rotate(180,9.6325,31.4805)">
                    <g
                       id="g28" />
                    <g
                       id="g30"
                       transform="translate(-91.266,-2.858)">
                      <g
                         id="g32"
                         transform="translate(39.979,62.961)">
                        <g
                           id="g34">
                          <g
                             id="g36">
                            <g
                               id="g38">
                              <g
                                 id="g40"
                                 transform="scale(-1)">
                                <g
                                   id="g42" />
                                <g
                                   id="g44"
                                   transform="rotate(180,19.9895,31.4805)">
                                <g
                                   id="g46" />
                                <g
                                   id="g48"
                                   transform="translate(-16.42)">
                                <g
                                   aria-label="Σ"
                                   transform="matrix(1,0,0,-1,39.979,62.961)"
                                   id="text52"
                                   style="font-size:9.9626px;font-family:'Latin Modern Math';-inkscape-font-specification:LatinModernMath-Regular-Identity-H">
                                <path
                                   d="M 6.6251288,-2.3511735 H 6.3760638 C 6.196737,-0.68741938 5.5192803,-0.41842919 3.9551521,-0.41842919 H 1.2054746 L 3.7060871,-3.2478075 c 0.089663,-0.099626 0.089663,-0.1594016 0.089663,-0.1594016 0,-0.049813 -0.03985,-0.099626 -0.069738,-0.1394764 L 1.6836794,-6.495615 h 2.3013605 c 1.6836794,0 2.1818093,0.3586536 2.3910239,1.9327443 h 0.249065 L 6.346176,-6.8044556 H 0.81693318 c -0.23910239,0 -0.25902759,0 -0.25902759,0.2291398 l 2.48068731,3.6064611 -2.37109872,2.69986451 c -0.099626,0.10958859 -0.099626,0.12951379 -0.099626,0.15940159 C 0.56786819,0 0.66749418,0 0.81693318,0 H 6.346176 Z"
                                   id="path174" />
                                </g>
                                <g
                                   aria-label="푗"
                                   transform="matrix(1,0,0,-1,47.172,66.578)"
                                   id="text56"
                                   style="font-size:6.9738px;font-family:'Latin Modern Math';-inkscape-font-specification:LatinModernMath-Regular-Identity-H" />
                                <g
                                   aria-label="푏"
                                   transform="matrix(1,0,0,-1,50.968,62.961)"
                                   id="text60"
                                   style="font-size:9.9626px;font-family:'Latin Modern Math';-inkscape-font-specification:LatinModernMath-Regular-Identity-H" />
                                <g
                                   aria-label="푚푚"
                                   transform="matrix(1,0,0,-1,55.242,60.5)"
                                   id="text64"
                                   style="font-size:6.9738px;font-family:'Latin Modern Math';-inkscape-font-specification:LatinModernMath-Regular-Identity-H" />
                                <g
                                   aria-label="′"
                                   transform="matrix(1,0,0,-1,69.385,62.516)"
                                   id="text68"
                                   style="font-size:4.9813px;font-family:'Latin Modern Math';-inkscape-font-specification:LatinModernMath-Regular-Identity-H">
                                <path
                                   d="m 1.2503063,-3.5367229 c 0,-0.1046073 -0.084682,-0.1892894 -0.1892894,-0.1892894 -0.0747195,0 -0.14445772,0.049813 -0.16438292,0.1046073 l -0.59775599,1.4794461 h 0.1344951 L 1.2204185,-3.4420782 c 0.019925,-0.024906 0.029888,-0.059776 0.029888,-0.094645 z"
                                   id="path180" />
                                </g>
                                </g>
                                <g
                                   id="g70"
                                   transform="translate(39.979,62.961)" />
                                </g>
                              </g>
                            </g>
                          </g>
                        </g>
                      </g>
                      <g
                         id="g72"
                         transform="translate(105.335,62.961)">
                        <g
                           id="g74">
                          <g
                             id="g76">
                            <g
                               id="g78">
                              <g
                                 id="g80"
                                 transform="scale(-1)">
                                <g
                                   id="g82" />
                                <g
                                   id="g84"
                                   transform="rotate(180,52.6675,31.4805)">
                                <g
                                   id="g86" />
                                <g
                                   id="g88"
                                   transform="translate(-16.44)">
                                <g
                                   aria-label="Σ"
                                   transform="matrix(1,0,0,-1,105.335,62.961)"
                                   id="text92"
                                   style="font-size:9.9626px;font-family:'Latin Modern Math';-inkscape-font-specification:LatinModernMath-Regular-Identity-H">
                                <path
                                   d="M 6.6251288,-2.3511735 H 6.3760638 C 6.196737,-0.68741938 5.5192803,-0.41842919 3.9551521,-0.41842919 H 1.2054746 L 3.7060871,-3.2478075 c 0.089663,-0.099626 0.089663,-0.1594016 0.089663,-0.1594016 0,-0.049813 -0.03985,-0.099626 -0.069738,-0.1394764 L 1.6836794,-6.495615 h 2.3013605 c 1.6836794,0 2.1818093,0.3586536 2.3910239,1.9327443 h 0.249065 L 6.346176,-6.8044556 H 0.81693318 c -0.23910239,0 -0.25902759,0 -0.25902759,0.2291398 l 2.48068731,3.6064611 -2.37109872,2.69986451 c -0.099626,0.10958859 -0.099626,0.12951379 -0.099626,0.15940159 C 0.56786819,0 0.66749418,0 0.81693318,0 H 6.346176 Z"
                                   id="path183" />
                                </g>
                                <g
                                   aria-label="푗"
                                   transform="matrix(1,0,0,-1,112.528,66.578)"
                                   id="text96"
                                   style="font-size:6.9738px;font-family:'Latin Modern Math';-inkscape-font-specification:LatinModernMath-Regular-Identity-H" />
                                <g
                                   aria-label="푐"
                                   transform="matrix(1,0,0,-1,116.325,62.961)"
                                   id="text100"
                                   style="font-size:9.9626px;font-family:'Latin Modern Math';-inkscape-font-specification:LatinModernMath-Regular-Identity-H" />
                                <g
                                   aria-label="푚푚"
                                   transform="matrix(1,0,0,-1,120.639,60.5)"
                                   id="text104"
                                   style="font-size:6.9738px;font-family:'Latin Modern Math';-inkscape-font-specification:LatinModernMath-Regular-Identity-H" />
                                <g
                                   aria-label="′"
                                   transform="matrix(1,0,0,-1,134.782,62.516)"
                                   id="text108"
                                   style="font-size:4.9813px;font-family:'Latin Modern Math';-inkscape-font-specification:LatinModernMath-Regular-Identity-H">
                                <path
                                   d="m 1.2503063,-3.5367229 c 0,-0.1046073 -0.084682,-0.1892894 -0.1892894,-0.1892894 -0.0747195,0 -0.14445772,0.049813 -0.16438292,0.1046073 l -0.59775599,1.4794461 h 0.1344951 L 1.2204185,-3.4420782 c 0.019925,-0.024906 0.029888,-0.059776 0.029888,-0.094645 z"
                                   id="path189" />
                                </g>
                                </g>
                                <g
                                   id="g110"
                                   transform="translate(105.335,62.961)" />
                                </g>
                              </g>
                            </g>
                          </g>
                        </g>
                      </g>
                      <g
                         id="g112"
                         transform="translate(175.887,62.961)">
                        <g
                           id="g114">
                          <g
                             id="g116">
                            <g
                               id="g118">
                              <g
                                 id="g120"
                                 transform="scale(-1)">
                                <g
                                   id="g122" />
                                <g
                                   id="g124"
                                   transform="rotate(180,87.9435,31.4805)">
                                <g
                                   id="g126" />
                                <g
                                   id="g128"
                                   transform="translate(-21.615)">
                                <g
                                   aria-label="Σ"
                                   transform="matrix(1,0,0,-1,175.887,62.961)"
                                   id="text132"
                                   style="font-size:9.9626px;font-family:'Latin Modern Math';-inkscape-font-specification:LatinModernMath-Regular-Identity-H">
                                <path
                                   d="M 6.6251288,-2.3511735 H 6.3760638 C 6.196737,-0.68741938 5.5192803,-0.41842919 3.9551521,-0.41842919 H 1.2054746 L 3.7060871,-3.2478075 c 0.089663,-0.099626 0.089663,-0.1594016 0.089663,-0.1594016 0,-0.049813 -0.03985,-0.099626 -0.069738,-0.1394764 L 1.6836794,-6.495615 h 2.3013605 c 1.6836794,0 2.1818093,0.3586536 2.3910239,1.9327443 h 0.249065 L 6.346176,-6.8044556 H 0.81693318 c -0.23910239,0 -0.25902759,0 -0.25902759,0.2291398 l 2.48068731,3.6064611 -2.37109872,2.69986451 c -0.099626,0.10958859 -0.099626,0.12951379 -0.099626,0.15940159 C 0.56786819,0 0.66749418,0 0.81693318,0 H 6.346176 Z"
                                   id="path192" />
                                </g>
                                <g
                                   aria-label="푗+1"
                                   transform="matrix(1,0,0,-1,183.08,66.578)"
                                   id="text136"
                                   style="font-size:6.9738px;font-family:'Latin Modern Math';-inkscape-font-specification:LatinModernMath-Regular-Identity-H">
                                <path
                                   d="m 8.3336911,-1.74345 c 0,-0.076712 -0.062764,-0.139476 -0.139476,-0.139476 H 6.1508916 v -2.0433235 c 0,-0.076712 -0.062764,-0.139476 -0.139476,-0.139476 -0.076712,0 -0.139476,0.062764 -0.139476,0.139476 V -1.882926 H 3.8286162 c -0.076712,0 -0.139476,0.062764 -0.139476,0.139476 0,0.076712 0.062764,0.139476 0.139476,0.139476 h 2.0433234 v 2.04332341 c 0,0.0767118 0.062764,0.13947601 0.139476,0.13947601 0.076712,0 0.139476,-0.0627642 0.139476,-0.13947601 V -1.603974 h 2.0433235 c 0.076712,0 0.139476,-0.062764 0.139476,-0.139476 z"
                                   id="path195" />
                                <path
                                   d="m 11.646246,0 v -0.21618781 h -0.223161 c -0.627642,0 -0.648564,-0.0767118 -0.648564,-0.3347424 V -4.4632321 c 0,-0.1673712 0,-0.1813188 -0.160397,-0.1813188 -0.432376,0.4463232 -1.0460701,0.4463232 -1.2692317,0.4463232 v 0.2161878 c 0.139476,0 0.5509302,0 0.9135677,-0.1813188 v 3.61242849 c 0,0.2510568 -0.02092,0.3347424 -0.6485633,0.3347424 H 9.3867351 V 0 c 0.244083,-0.0209214 0.8508039,-0.0209214 1.1297559,-0.0209214 0.278952,0 0.885672,0 1.129755,0.0209214 z"
                                   id="path197" />
                                </g>
                                <g
                                   aria-label="푎"
                                   transform="matrix(1,0,0,-1,196.271,62.961)"
                                   id="text140"
                                   style="font-size:9.9626px;font-family:'Latin Modern Math';-inkscape-font-specification:LatinModernMath-Regular-Identity-H" />
                                <g
                                   aria-label="푚푚"
                                   transform="matrix(1,0,0,-1,201.541,60.5)"
                                   id="text144"
                                   style="font-size:6.9738px;font-family:'Latin Modern Math';-inkscape-font-specification:LatinModernMath-Regular-Identity-H" />
                                <g
                                   aria-label="′"
                                   transform="matrix(1,0,0,-1,215.684,62.516)"
                                   id="text148"
                                   style="font-size:4.9813px;font-family:'Latin Modern Math';-inkscape-font-specification:LatinModernMath-Regular-Identity-H">
                                <path
                                   d="m 1.2503063,-3.5367229 c 0,-0.1046073 -0.084682,-0.1892894 -0.1892894,-0.1892894 -0.0747195,0 -0.14445772,0.049813 -0.16438292,0.1046073 l -0.59775599,1.4794461 h 0.1344951 L 1.2204185,-3.4420782 c 0.019925,-0.024906 0.029888,-0.059776 0.029888,-0.094645 z"
                                   id="path202" />
                                </g>
                                </g>
                                <g
                                   id="g150"
                                   transform="translate(175.887,62.961)" />
                                </g>
                              </g>
                            </g>
                          </g>
                        </g>
                      </g>
                    </g>
                    <g
                       id="g152"
                       transform="translate(19.265,62.961)" />
                  </g>
                </g>
              </g>
            </g>
            <g
               id="g154">
              <path
                 d="m -49.63994,-0.36768 h 23.11357"
                 style="fill:currentColor;stroke:currentColor;stroke-width:0.3985;stroke-linecap:butt;stroke-linejoin:miter;stroke-miterlimit:10;stroke-dasharray:none;stroke-opacity:1"
                 id="path156" />
              <g
                 id="g158"
                 transform="translate(-26.32712,-0.36768)">
                <g
                   id="g160">
                  <path
                     d="M -2.0722,2.39099 C -1.69362,0.95638 -0.84998,0.27893 0,0 -0.84998,-0.27893 -1.69362,-0.95638 -2.0722,-2.39099"
                     style="fill:currentColor;stroke:currentColor;stroke-width:0.3985;stroke-linecap:round;stroke-linejoin:round;stroke-miterlimit:10;stroke-dasharray:none;stroke-opacity:1"
                     id="path162" />
                </g>
              </g>
            </g>
            <g
               id="g164">
              <path
                 d="M 15.73767,-0.36768 H 38.85124"
                 style="fill:currentColor;stroke:currentColor;stroke-width:0.3985;stroke-linecap:butt;stroke-linejoin:miter;stroke-miterlimit:10;stroke-dasharray:none;stroke-opacity:1"
                 id="path166" />
              <g
                 id="g168"
                 transform="translate(39.0505,-0.36768)">
                <g
                   id="g170">
                  <path
                     d="M -2.0722,2.39099 C -1.69362,0.95638 -0.84998,0.27893 0,0 -0.84998,-0.27893 -1.69362,-0.95638 -2.0722,-2.39099"
                     style="fill:currentColor;stroke:currentColor;stroke-width:0.3985;stroke-linecap:round;stroke-linejoin:round;stroke-miterlimit:10;stroke-dasharray:none;stroke-opacity:1"
                     id="path172" />
                </g>
              </g>
            </g>
          </g>
        </g>
      </g>
    </g>
  </g>
</svg>
